<svg width="278" height="69" viewBox="0 0 278 69" fill="none" xmlns="http://www.w3.org/2000/svg">
<path d="M28.4754 0.134766V9.73442M28.4754 36.2294V9.73442M28.4754 9.73442C3.89058 13.1906 -7.2627 27.0141 11.1979 36.2294M40.0133 9.73442V22.9819V36.2294M40.0133 0.134766L40.0133 2.82267M79.6892 36.2294C78.4585 23.9419 71.3229 13.4463 66.195 9.73442C56.0416 14.3422 51.8075 29.3177 50.3973 36.2294V9.73442M187.313 9.73442C187.313 12.0383 188.145 37.3814 184.299 45.0611M187.313 0.134766V2.82267M197.697 0.134766C196.928 11.5264 196.313 34.6935 200.005 36.2294M207.312 9.73442V36.2294M207.312 0.134766V2.82267M92.3474 9.73442C94.9021 10.3269 99.6126 10.7102 103.365 15.0622M103.365 15.0622C107.822 20.2303 110.656 27.9748 111.963 36.2294M103.365 15.0622C90.0399 17.0304 74.3049 29.7019 94.3038 36.2294M113.471 9.73439C114.881 16.6461 119.115 31.6216 129.269 36.2294C134.397 32.5175 141.499 22.0219 142.729 9.73439M156.19 36.2294C146.191 34.3095 143.577 18.95 162.038 9.35039C171.268 10.5023 178.497 15.1102 176.959 23.5579H163.498M246.955 36.2294C245.724 23.9419 238.622 13.4463 233.494 9.73442C223.341 14.3422 219.106 29.3177 217.696 36.2294V9.73442M267.756 66.1804C282.371 65.0284 275.064 15.0622 265.031 9.73442C251.995 10.9344 245.45 33.1584 268.525 36.2294M177.728 61.1885C177.087 62.3405 174.882 64.9516 171.19 66.1804" stroke="white" stroke-width="4"/>
<path d="M112.593 52.1324C112.593 49.5564 114.113 47.8924 116.257 47.8924C118.129 47.8924 118.753 49.1404 118.753 49.1404H118.785C118.785 49.1404 118.753 48.9004 118.753 48.5964V46.5644C118.753 46.3244 118.625 46.2124 118.401 46.2124H117.745V44.8844H119.281C120.001 44.8844 120.305 45.1884 120.305 45.9084V54.5004C120.305 54.7404 120.433 54.8524 120.657 54.8524H121.313V56.1804H119.825C119.121 56.1804 118.833 55.8604 118.833 55.3164C118.833 55.0764 118.849 54.9004 118.849 54.9004H118.817C118.817 54.9004 118.145 56.3724 116.161 56.3724C113.969 56.3724 112.593 54.6444 112.593 52.1324ZM116.465 55.0284C117.665 55.0284 118.801 54.1804 118.801 52.1164C118.801 50.6764 118.049 49.2364 116.497 49.2364C115.233 49.2364 114.177 50.2924 114.177 52.1324C114.177 53.8924 115.121 55.0284 116.465 55.0284ZM121.8 53.9084C121.8 51.3004 125.32 51.1404 126.68 51.1404H127.032V51.0604C127.032 49.6364 126.504 49.1244 125.24 49.1244C124.856 49.1244 123.912 49.2204 123.912 49.7484V50.2124H122.456V49.4124C122.456 48.0844 124.472 47.8924 125.256 47.8924C127.88 47.8924 128.584 49.2684 128.584 51.0604V54.5004C128.584 54.7404 128.712 54.8524 128.936 54.8524H129.592V56.1804H128.136C127.416 56.1804 127.128 55.8284 127.128 55.2524C127.128 54.9804 127.16 54.7724 127.16 54.7724H127.128C127.128 54.7724 126.488 56.3724 124.552 56.3724C123.16 56.3724 121.8 55.5244 121.8 53.9084ZM123.368 53.8284C123.368 54.4844 123.864 55.1244 124.888 55.1244C126.2 55.1244 127.048 53.7484 127.048 52.5484V52.2764H126.648C125.48 52.2764 123.368 52.3404 123.368 53.8284ZM130.792 56.1804V49.7644C130.792 49.5244 130.664 49.4124 130.44 49.4124H129.784V48.0844H131.272C131.96 48.0844 132.296 48.3884 132.296 48.9804V49.2844C132.296 49.5404 132.264 49.7484 132.264 49.7484H132.296C132.616 49.0444 133.576 47.8924 135.336 47.8924C137.256 47.8924 138.12 48.9324 138.12 50.9964V54.5004C138.12 54.7404 138.248 54.8524 138.472 54.8524H139.128V56.1804H137.592C136.872 56.1804 136.568 55.8764 136.568 55.1564V51.3484C136.568 50.2124 136.344 49.3164 135.048 49.3164C133.8 49.3164 132.808 50.1324 132.488 51.3004C132.376 51.6204 132.344 51.9884 132.344 52.3884V56.1804H130.792ZM139.399 54.9484L140.199 53.9084C140.199 53.9084 141.159 55.1084 142.647 55.1084C143.399 55.1084 144.055 54.7724 144.055 54.0684C144.055 52.6124 139.639 52.7724 139.639 50.1644C139.639 48.6124 140.999 47.8924 142.647 47.8924C143.623 47.8924 145.303 48.2284 145.303 49.4604V50.2284H143.911V49.8284C143.911 49.3484 143.191 49.1404 142.695 49.1404C141.783 49.1404 141.191 49.4604 141.191 50.1004C141.191 51.6364 145.607 51.3004 145.607 54.0044C145.607 55.4444 144.327 56.3724 142.631 56.3724C140.471 56.3724 139.399 54.9484 139.399 54.9484ZM147.049 56.1804V46.5644C147.049 46.3244 146.921 46.2124 146.697 46.2124H146.041V44.8844H147.577C148.297 44.8844 148.601 45.0924 148.601 45.8124V51.0604H149.321C149.609 51.0604 149.961 50.9804 150.169 50.7084L152.041 48.0844H153.817L151.625 51.0924C151.257 51.5884 151.017 51.7004 151.017 51.7004V51.7324C151.017 51.7324 151.289 51.8284 151.561 52.3404L152.761 54.5324C152.889 54.7884 153.049 54.8524 153.449 54.8524H153.945V56.1804H152.825C152.073 56.1804 151.833 56.0524 151.481 55.4284L150.009 52.7084C149.833 52.4044 149.465 52.3724 149.209 52.3724H148.601V56.1804H147.049ZM158.792 56.1804V46.5644C158.792 46.3244 158.664 46.2124 158.44 46.2124H157.784V44.8844H159.32C160.04 44.8844 160.344 45.0924 160.344 45.8124V51.0604H161.064C161.352 51.0604 161.704 50.9804 161.912 50.7084L163.784 48.0844H165.56L163.368 51.0924C163 51.5884 162.76 51.7004 162.76 51.7004V51.7324C162.76 51.7324 163.032 51.8284 163.304 52.3404L164.504 54.5324C164.632 54.7884 164.792 54.8524 165.192 54.8524H165.688V56.1804H164.568C163.816 56.1804 163.576 56.0524 163.224 55.4284L161.752 52.7084C161.576 52.4044 161.208 52.3724 160.952 52.3724H160.344V56.1804H158.792ZM166.75 53.2684V49.7644C166.75 49.5244 166.622 49.4124 166.398 49.4124H165.742V48.0844H167.262C167.998 48.0844 168.302 48.3884 168.302 49.0764V52.9164C168.302 54.0364 168.526 54.9324 169.806 54.9324C171.47 54.9324 172.446 53.4764 172.446 51.8764V48.0844H173.998V54.5004C173.998 54.7404 174.126 54.8524 174.35 54.8524H175.006V56.1804H173.518C172.83 56.1804 172.494 55.8604 172.494 55.2844V54.9804C172.494 54.7244 172.51 54.5164 172.51 54.5164H172.478C172.142 55.3164 171.102 56.3724 169.502 56.3724C167.678 56.3724 166.75 55.4124 166.75 53.2684ZM176.24 56.1804V49.7644C176.24 49.5244 176.112 49.4124 175.888 49.4124H175.232V48.0844H176.72C177.408 48.0844 177.744 48.3884 177.744 48.9804V49.2844C177.744 49.5404 177.712 49.7484 177.712 49.7484H177.744C178.064 49.0444 179.024 47.8924 180.784 47.8924C182.704 47.8924 183.568 48.9324 183.568 50.9964V54.5004C183.568 54.7404 183.696 54.8524 183.92 54.8524H184.576V56.1804H183.04C182.32 56.1804 182.016 55.8764 182.016 55.1564V51.3484C182.016 50.2124 181.792 49.3164 180.496 49.3164C179.248 49.3164 178.256 50.1324 177.936 51.3004C177.824 51.6204 177.792 51.9884 177.792 52.3884V56.1804H176.24ZM184.847 54.9484L185.647 53.9084C185.647 53.9084 186.607 55.1084 188.095 55.1084C188.847 55.1084 189.503 54.7724 189.503 54.0684C189.503 52.6124 185.087 52.7724 185.087 50.1644C185.087 48.6124 186.447 47.8924 188.095 47.8924C189.071 47.8924 190.751 48.2284 190.751 49.4604V50.2284H189.359V49.8284C189.359 49.3484 188.639 49.1404 188.143 49.1404C187.231 49.1404 186.639 49.4604 186.639 50.1004C186.639 51.6364 191.055 51.3004 191.055 54.0044C191.055 55.4444 189.775 56.3724 188.079 56.3724C185.919 56.3724 184.847 54.9484 184.847 54.9484ZM192.625 53.2204V49.3324H191.569V48.0844H192.657V45.8604H194.177V48.0844H196.113V49.3324H194.177V53.0444C194.177 54.6604 195.297 54.8684 195.889 54.8684C196.113 54.8684 196.257 54.8364 196.257 54.8364V56.2124C196.257 56.2124 196.049 56.2444 195.713 56.2444C194.689 56.2444 192.625 55.9244 192.625 53.2204ZM197.533 56.1804V46.5644C197.533 46.3244 197.405 46.2124 197.181 46.2124H196.525V44.8844H198.061C198.781 44.8844 199.085 45.1884 199.085 45.8764V49.0284C199.085 49.4124 199.053 49.7004 199.053 49.7004H199.085C199.437 48.9164 200.477 47.8924 202.093 47.8924C203.997 47.8924 204.861 48.9324 204.861 50.9964V54.5004C204.861 54.7404 204.989 54.8524 205.213 54.8524H205.869V56.1804H204.349C203.629 56.1804 203.325 55.8764 203.325 55.1564V51.3484C203.325 50.2124 203.085 49.3164 201.789 49.3164C200.557 49.3164 199.565 50.1484 199.229 51.3164C199.117 51.6364 199.085 52.0044 199.085 52.3884V56.1804H197.533ZM206.302 53.9084C206.302 51.3004 209.822 51.1404 211.182 51.1404H211.534V51.0604C211.534 49.6364 211.006 49.1244 209.742 49.1244C209.358 49.1244 208.414 49.2204 208.414 49.7484V50.2124H206.958V49.4124C206.958 48.0844 208.974 47.8924 209.758 47.8924C212.382 47.8924 213.086 49.2684 213.086 51.0604V54.5004C213.086 54.7404 213.214 54.8524 213.438 54.8524H214.094V56.1804H212.638C211.918 56.1804 211.63 55.8284 211.63 55.2524C211.63 54.9804 211.662 54.7724 211.662 54.7724H211.63C211.63 54.7724 210.99 56.3724 209.054 56.3724C207.662 56.3724 206.302 55.5244 206.302 53.9084ZM207.87 53.8284C207.87 54.4844 208.366 55.1244 209.39 55.1244C210.702 55.1244 211.55 53.7484 211.55 52.5484V52.2764H211.15C209.982 52.2764 207.87 52.3404 207.87 53.8284ZM209.966 47.1084C209.278 47.1084 208.67 46.6604 208.67 45.9244C208.67 45.1724 209.278 44.7244 209.966 44.7244C210.638 44.7244 211.262 45.1724 211.262 45.9244C211.262 46.6604 210.638 47.1084 209.966 47.1084ZM209.966 46.4524C210.286 46.4524 210.51 46.2284 210.51 45.9244C210.51 45.5884 210.286 45.3644 209.966 45.3644C209.646 45.3644 209.422 45.5884 209.422 45.9244C209.422 46.2284 209.646 46.4524 209.966 46.4524ZM215.293 56.1804V49.7644C215.293 49.5244 215.165 49.4124 214.941 49.4124H214.285V48.0844H215.773C216.461 48.0844 216.797 48.3884 216.797 48.9804V49.2844C216.797 49.5404 216.765 49.7484 216.765 49.7484H216.797C217.117 49.0444 218.077 47.8924 219.837 47.8924C221.757 47.8924 222.621 48.9324 222.621 50.9964V54.5004C222.621 54.7404 222.749 54.8524 222.973 54.8524H223.629V56.1804H222.093C221.373 56.1804 221.069 55.8764 221.069 55.1564V51.3484C221.069 50.2124 220.845 49.3164 219.549 49.3164C218.301 49.3164 217.309 50.1324 216.989 51.3004C216.877 51.6204 216.845 51.9884 216.845 52.3884V56.1804H215.293ZM224.06 52.1324C224.06 49.5564 225.58 47.8924 227.724 47.8924C229.596 47.8924 230.22 49.1404 230.22 49.1404H230.252C230.252 49.1404 230.22 48.9004 230.22 48.5964V46.5644C230.22 46.3244 230.092 46.2124 229.868 46.2124H229.212V44.8844H230.748C231.468 44.8844 231.772 45.1884 231.772 45.9084V54.5004C231.772 54.7404 231.9 54.8524 232.124 54.8524H232.78V56.1804H231.292C230.588 56.1804 230.3 55.8604 230.3 55.3164C230.3 55.0764 230.316 54.9004 230.316 54.9004H230.284C230.284 54.9004 229.612 56.3724 227.628 56.3724C225.436 56.3724 224.06 54.6444 224.06 52.1324ZM227.932 55.0284C229.132 55.0284 230.268 54.1804 230.268 52.1164C230.268 50.6764 229.516 49.2364 227.964 49.2364C226.7 49.2364 225.644 50.2924 225.644 52.1324C225.644 53.8924 226.588 55.0284 227.932 55.0284ZM236.036 56.1804L233.54 49.7324C233.444 49.4924 233.3 49.4124 233.044 49.4124H232.884V48.0844H233.684C234.404 48.0844 234.676 48.2604 234.916 48.9004L236.66 53.5564C236.82 54.0044 236.948 54.6124 236.948 54.6124H236.98C236.98 54.6124 237.108 54.0044 237.268 53.5564L238.996 48.9004C239.236 48.2604 239.524 48.0844 240.228 48.0844H240.98V49.4124H240.82C240.548 49.4124 240.388 49.4924 240.292 49.7324L237.828 56.1804H236.036ZM241.225 53.9084C241.225 51.3324 244.393 51.1884 246.057 51.1884H246.457V51.0444C246.457 49.6044 245.881 49.1244 244.665 49.1244C244.265 49.1244 243.337 49.2204 243.337 49.7484V50.2124H241.881V49.4124C241.881 48.2444 243.481 47.8924 244.681 47.8924C246.281 47.8924 247.049 48.4364 247.433 49.3164H247.465C248.105 48.3724 249.113 47.8924 250.345 47.8924C252.553 47.8924 253.785 49.5724 253.785 51.6044C253.785 51.9244 253.753 52.3244 253.753 52.3244H247.961C248.057 54.1004 249.193 55.0284 250.649 55.0284C252.041 55.0284 253.017 54.0844 253.017 54.0844L253.689 55.1884C253.689 55.1884 252.489 56.3724 250.569 56.3724C248.937 56.3724 247.721 55.6044 247.081 54.3404H247.049C246.905 54.7564 246.089 56.3724 243.993 56.3724C242.505 56.3724 241.225 55.4764 241.225 53.9084ZM248.025 51.1884H252.217C252.169 49.8444 251.305 49.1244 250.313 49.1244C249.129 49.1244 248.249 49.8604 248.025 51.1884ZM242.809 53.8284C242.809 54.5004 243.305 55.1244 244.329 55.1244C245.657 55.1244 246.473 53.7324 246.473 52.5324V52.3244H245.721C244.505 52.3244 242.809 52.4844 242.809 53.8284ZM255.404 56.1804V49.7644C255.404 49.5244 255.276 49.4124 255.052 49.4124H254.396V48.0844H255.868C256.572 48.0844 256.908 48.3724 256.908 49.0284V49.5404C256.908 49.8604 256.876 50.1004 256.876 50.1004H256.908C257.292 48.9164 258.22 47.9884 259.468 47.9884C259.676 47.9884 259.884 48.0204 259.884 48.0204V49.5564C259.884 49.5564 259.676 49.5084 259.42 49.5084C258.428 49.5084 257.516 50.2124 257.148 51.4124C257.004 51.8764 256.956 52.3724 256.956 52.8684V56.1804H255.404ZM260.891 56.1804V46.5644C260.891 46.3244 260.763 46.2124 260.539 46.2124H259.883V44.8844H261.419C262.139 44.8844 262.443 45.0924 262.443 45.8124V51.0604H263.163C263.451 51.0604 263.803 50.9804 264.011 50.7084L265.883 48.0844H267.659L265.467 51.0924C265.099 51.5884 264.859 51.7004 264.859 51.7004V51.7324C264.859 51.7324 265.131 51.8284 265.403 52.3404L266.603 54.5324C266.731 54.7884 266.891 54.8524 267.291 54.8524H267.787V56.1804H266.667C265.915 56.1804 265.675 56.0524 265.323 55.4284L263.851 52.7084C263.675 52.4044 263.307 52.3724 263.051 52.3724H262.443V56.1804H260.891Z" fill="white"/>
</svg>
